# xmcd
#
# Track frame offsets:
#	150
#	11607
#	25550
#	45140
#	55647
#	72975
#	90367
#	106335
#	121915
#	139320
#	155322
#	167985
#	180217
#	196237
#	206982
#	224532
#	242722
#	253500
#	272140
#	292670
#
# Disc length: 4146 seconds
#
# Revision: 0
# Processed by: cddbd v1.5.1PL0 Copyright (c) Steve Scherf et al.
# Submitted via: dBpowerAMP V4.0
#
DISCID=0c103014
DTITLE=Willie Nelson - Willie Nelson: On The Road Again
DYEAR=1900
DGENRE=
TTITLE0=On The Road Again
TTITLE1=My Heroes Have Always Been Cowboys
TTITLE2=Georgia On My Mind
TTITLE3=Blue Eyes Crying In The Rain
TTITLE4=Faded Love
TTITLE5=Without a Song
TTITLE6=Always On My Mind
TTITLE7=Mammas Dont Let Your Babies Grow Up To Be Cowboys
TTITLE8=Star Dust
TTITLE9=Whiskey River
TTITLE10=The Party's Over
TTITLE11=Funny How Time Slips Away
TTITLE12=Blue Skies
TTITLE13=That Lucky Old Sun
TTITLE14=All Of Me
TTITLE15=Someone To Watch Over Me
TTITLE16=Stormy Weather
TTITLE17=You'll Never Know
TTITLE18=September Song
TTITLE19=To Each His Own
EXTD=Readers Digest Release
EXTT0=
EXTT1=
EXTT2=
EXTT3=
EXTT4=
EXTT5=
EXTT6=
EXTT7=
EXTT8=
EXTT9=
EXTT10=
EXTT11=
EXTT12=
EXTT13=
EXTT14=
EXTT15=
EXTT16=
EXTT17=
EXTT18=
EXTT19=
PLAYORDER=
